<svg width="42" height="42" viewBox="0 0 42 42" fill="none" xmlns="http://www.w3.org/2000/svg">
<rect x="0.325317" y="0.325195" width="41.3253" height="41.3253" rx="20.6627" fill="#1E2560"/>
<path d="M21 11.1665C16.8118 11.1665 13.4167 14.5617 13.4167 18.7498C13.4167 23.0463 18.1877 29.3882 20.1615 31.8268C20.5948 32.3619 21.4052 32.3619 21.8385 31.8268C23.8123 29.3882 28.5833 23.0463 28.5833 18.7498C28.5833 14.5617 25.1882 11.1665 21 11.1665ZM21 21.4582C19.5039 21.4582 18.2917 20.2459 18.2917 18.7498C18.2917 17.2538 19.5039 16.0415 21 16.0415C22.4961 16.0415 23.7083 17.2538 23.7083 18.7498C23.7083 20.2459 22.4961 21.4582 21 21.4582Z" fill="white"/>
</svg>
