<svg width="25" height="23" viewBox="0 0 25 23" fill="none" xmlns="http://www.w3.org/2000/svg">
<path d="M17.7377 19.3668H15.6267L15.4076 17.8884H9.85126L9.63219 19.3668H7.52117C6.11217 19.3668 4.96704 20.4736 4.96704 21.8319C4.96704 22.1042 5.19607 22.3252 5.4782 22.3252H19.7807C20.0628 22.3252 20.2918 22.1042 20.2918 21.8319C20.2918 20.472 19.145 19.3668 17.7377 19.3668Z" fill="white"/>
<path d="M22.8481 0H2.4117C1.5653 0 0.879883 0.661517 0.879883 1.4784V15.7771C0.879883 16.594 1.5653 17.2555 2.4117 17.2555H22.8464C23.6928 17.2555 24.3782 16.5924 24.3782 15.7771V1.4784C24.3782 0.661517 23.6911 0 22.8464 0H22.8481ZM22.3635 13.5042C22.3635 14.3612 21.5785 15.0595 20.6142 15.0595H4.64553C3.6813 15.0595 2.8963 14.3628 2.8963 13.5042V3.61832C2.8963 2.76139 3.6813 2.06304 4.64553 2.06304H20.6142C21.5785 2.06304 22.3635 2.76139 22.3635 3.61832V13.5042Z" fill="white"/>
</svg>
