<svg width="42" height="42" viewBox="0 0 42 42" fill="none" xmlns="http://www.w3.org/2000/svg">
<rect x="0.325317" width="41.3253" height="41.3253" rx="20.6627" fill="#1E2560"/>
<g clip-path="url(#clip0_280_5772)">
<path d="M25.7484 21.3407L30.3902 25.1887L31.0187 25.7289C31.6361 24.8689 32 23.8325 32 22.6969V18.2756C32 17.7243 31.8897 17.2061 31.7354 16.71L31.2392 17.0738L25.7484 21.3407Z" fill="white"/>
<path d="M12.2751 15.7619L19.0449 21.0322C20.3349 22.0355 22.1541 22.0355 23.4441 21.0322L30.2359 15.7509L30.9746 15.2106C30.0264 13.8986 28.4938 13.0386 26.7518 13.0386H15.7372C14.0172 13.0386 12.5066 13.8765 11.5584 15.1555L12.2861 15.7619H12.2751Z" fill="white"/>
<path d="M29.3208 26.4457L24.4033 22.3662C23.4661 23.0719 22.3525 23.4357 21.25 23.4357C20.1474 23.4357 19.0228 23.0719 18.0856 22.3662L12.6279 26.8757C13.499 27.5262 14.5684 27.9231 15.7372 27.9231H26.7628C27.9205 27.9231 28.979 27.5372 29.85 26.8977L29.3318 26.4457H29.3208Z" fill="white"/>
<path d="M11.2387 17.0519L10.7756 16.666C10.6103 17.1732 10.5 17.7135 10.5 18.2758V22.686C10.5 23.8106 10.8638 24.847 11.4703 25.707L12.1097 25.1888L16.7405 21.3409L11.2387 17.0519Z" fill="white"/>
</g>
<defs>
<clipPath id="clip0_280_5772">
<rect width="21.5" height="14.8846" fill="white" transform="translate(10.5 13.0386)"/>
</clipPath>
</defs>
</svg>
