<svg width="79" height="76" viewBox="0 0 79 76" fill="none" xmlns="http://www.w3.org/2000/svg">
<g clip-path="url(#clip0_595_89)">
<path d="M75.8272 31.4706C75.2173 30.792 74.2011 30.7041 73.369 31.0916C72.7762 31.3671 72.1926 31.5229 71.6159 31.7194C71.5959 31.7179 71.576 31.7163 71.5668 31.7056L59.3983 7.02301C59.3983 7.02301 59.4006 6.9931 59.4121 6.97393C59.9097 6.63097 60.3875 6.28649 60.9419 5.988C61.8307 5.51457 62.4072 4.53578 62.1202 3.57101C61.7525 2.34933 60.401 1.79437 59.3066 2.33228C50.5819 6.63784 48.7034 15.0488 48.0121 23.4105C48.0098 23.4404 47.9883 23.4588 47.9599 23.4365C43.1456 20.1689 38.2248 17.1137 33.1743 16.9271C31.6549 16.8607 30.6199 18.4562 31.2875 19.8213C31.6159 20.5084 32.3063 20.9224 33.0671 20.9406C33.7474 20.9627 34.4423 21.0561 35.1426 21.2101C35.1426 21.2101 35.1626 21.2116 35.171 21.2323L45.5347 42.2462C45.5347 42.2462 45.5332 42.2661 45.5324 42.2761C45.2304 42.945 44.8724 43.5594 44.4576 44.1293C44.0206 44.7277 43.9602 45.5154 44.2901 46.1825C44.5418 46.6933 44.9668 47.0368 45.4462 47.1939C46.2378 47.4652 47.1887 47.2272 47.7492 46.4578C50.6727 42.3393 51.2442 36.5861 51.5802 30.7648C51.5825 30.7349 51.604 30.7165 51.6324 30.7387C58.6758 35.2805 66.5004 38.9194 75.2252 34.6138C76.3824 34.0406 76.7409 32.5035 75.8081 31.4591L75.8272 31.4706ZM47.0296 36.2228L40.8939 23.7673C40.8939 23.7673 40.8993 23.6975 40.9484 23.7113C43.0233 24.9034 45.1489 26.3502 47.3965 27.9066C47.5108 27.9855 47.6159 28.0538 47.7394 28.1435C47.7287 28.2831 47.718 28.4226 47.7081 28.5523C47.5806 31.2604 47.4233 33.8359 47.1101 36.219C47.1071 36.2589 47.0565 36.265 47.0296 36.2228ZM56.9003 29.2671C55.2281 28.3165 53.5543 27.2554 51.8567 26.1123C51.9836 24.066 52.1556 22.0834 52.4221 20.1782C52.4251 20.1383 52.4758 20.1321 52.5026 20.1743L56.9639 29.2219C56.9639 29.2219 56.9586 29.2917 56.9095 29.2779L56.9003 29.2671ZM67.4507 32.5434C65.8539 32.5714 64.2815 32.2803 62.7122 31.819C62.7122 31.819 62.6923 31.8174 62.6838 31.7967L53.9354 14.0459C53.9354 14.0459 53.9369 14.026 53.9377 14.016C54.5156 12.4957 55.2569 11.0682 56.2552 9.8209C56.2774 9.79252 56.3073 9.79481 56.315 9.82549L67.4844 32.4958C67.4844 32.4958 67.4806 32.5457 67.4507 32.5434Z" fill="#1652F0"/>
<path d="M47.206 43.8932C46.6236 43.5083 45.9063 43.4451 45.2874 43.7351C44.8431 43.9511 44.3666 44.1396 43.8769 44.2889C43.8769 44.2889 43.857 44.2905 43.847 44.2913L24.2915 31.404C24.2915 31.404 24.2799 31.3849 24.2791 31.3749C24.2303 30.8872 24.2113 30.3972 24.2238 29.9247C24.2379 29.2214 23.9124 28.5351 23.32 28.1509C22.8329 27.8286 22.2958 27.761 21.8022 27.8606C20.9436 28.0393 20.2185 28.7592 20.1967 29.744C20.0947 34.5072 22.3755 39.4617 24.8716 44.3488C24.884 44.3779 24.8756 44.3987 24.8449 44.3911C16.4694 44.0253 7.89769 44.8488 2.54427 52.9496C2.07914 53.6588 2.07644 54.6321 2.60974 55.2818C3.51329 56.4236 5.14652 56.2734 5.87135 55.1723C6.2563 54.5899 6.70142 54.1331 7.13419 53.6472C7.15333 53.6356 7.17327 53.6341 7.18403 53.6432L30.1495 68.7868C30.1495 68.7868 30.1619 68.8159 30.1535 68.8366C29.8958 69.3788 29.658 69.9194 29.3304 70.4672C28.7967 71.3223 28.7975 72.4658 29.5342 73.1495C30.4661 74.0182 31.9143 73.8125 32.5857 72.7959C37.9375 64.6752 35.3073 56.4682 31.6848 48.902C31.6725 48.8729 31.6809 48.8522 31.7116 48.8598C37.1788 49.2366 42.6369 49.3735 46.9733 47.3928C48.3965 46.7477 48.5092 44.7625 47.2068 43.9032L47.206 43.8932ZM21.0677 48.3537C22.992 48.3307 24.974 48.4035 27.0107 48.5321L27.0206 48.5313C27.9491 50.3634 28.7947 52.1619 29.5282 53.9392C29.5313 53.9791 29.503 54.0014 29.4616 53.9847L21.0442 48.4358C21.0442 48.4358 21.0187 48.3676 21.0585 48.3644L21.0677 48.3537ZM31.4634 64.8801L10.3065 50.9065C10.3065 50.9065 10.2826 50.8583 10.3117 50.8459C11.67 50.0154 13.1818 49.4736 14.7652 49.0766C14.7652 49.0766 14.7852 49.075 14.7951 49.0742L31.3126 59.9665C31.3126 59.9665 31.3241 59.9857 31.3249 59.9957C31.5948 61.6193 31.6844 63.2474 31.441 64.8518L31.4434 64.8817L31.4634 64.8801ZM37.6613 45.0952C35.2654 45.1156 32.7032 44.9386 29.9684 44.7352C29.8372 44.7256 29.6961 44.7168 29.5549 44.7079C29.4856 44.5931 29.4346 44.4567 29.3653 44.3419L29.3752 44.3411C28.11 41.934 26.9433 39.6294 26.0153 37.4261C26.0121 37.3862 26.0405 37.3639 26.0819 37.3807L37.6757 45.0239C37.6757 45.0239 37.7012 45.092 37.6613 45.0952Z" fill="#1652F0"/>
<path d="M12 18L19.09 21.41" stroke="#1652F0" stroke-width="3.5" stroke-miterlimit="10" stroke-linecap="round"/>
<path d="M22 9L24.6 16.42" stroke="#1652F0" stroke-width="3.5" stroke-miterlimit="10" stroke-linecap="round"/>
</g>
<defs>
<clipPath id="clip0_595_89">
<rect width="78.3506" height="75.8513" fill="white" transform="translate(0.24054)"/>
</clipPath>
</defs>
</svg>
