<svg width="20" height="22" viewBox="0 0 20 22" fill="none" xmlns="http://www.w3.org/2000/svg">
<g clip-path="url(#clip0_838_580)">
<path d="M18.8844 11.6646L17.1016 12.556V15.3826C17.1016 16.1471 16.7865 16.8713 16.2371 17.373C15.695 17.8657 14.9888 18.0986 14.2482 18.0314L12.1518 17.8956V20.1323C12.1518 20.9431 11.4948 21.6001 10.684 21.6001H4.99653C4.18574 21.6001 3.52875 20.9431 3.52875 20.1323V18.351C3.52875 16.5114 2.94492 14.6912 1.84147 13.0846C0.884356 11.6945 0.378174 10.0609 0.378174 8.36172C0.378174 6.03686 1.07996 3.95987 2.35662 2.51299C3.82589 0.84513 5.97306 0 8.73989 0C11.5067 0 13.5359 0.718212 14.9559 2.19495C16.1206 3.40591 16.461 5.40077 16.7223 7.61663L16.7388 7.74802C16.7388 7.74802 18.5813 10.0923 19.0756 11.1002C19.1786 11.3092 19.092 11.5616 18.8844 11.6661V11.6646Z" fill="white"/>
</g>
<defs>
<clipPath id="clip0_838_580">
<rect width="18.7422" height="21.6016" fill="white" transform="translate(0.378174)"/>
</clipPath>
</defs>
</svg>
