<svg width="28" height="16" viewBox="0 0 28 16" fill="none" xmlns="http://www.w3.org/2000/svg">
<path d="M26.9998 9L27.9998 9L27.9998 7L26.9998 7L26.9998 9ZM0.459317 7.29289C0.0687927 7.68341 0.0687927 8.31658 0.459317 8.7071L6.82328 15.0711C7.2138 15.4616 7.84697 15.4616 8.23749 15.0711C8.62802 14.6805 8.62802 14.0474 8.23749 13.6569L2.58064 8L8.23749 2.34314C8.62802 1.95262 8.62802 1.31945 8.23749 0.92893C7.84697 0.538406 7.2138 0.538406 6.82328 0.92893L0.459317 7.29289ZM26.9998 7L1.16642 7L1.16642 9L26.9998 9L26.9998 7Z" fill="black"/>
</svg>
