<?xml version="1.0" encoding="UTF-8"?>
<svg id="Layer_2" data-name="Layer 2" xmlns="http://www.w3.org/2000/svg" xmlns:xlink="http://www.w3.org/1999/xlink" viewBox="0 0 621.07 180.82">
  <defs>
    <style>
      .cls-1 {
        fill: url(#linear-gradient);
        stroke-width: 0px;
      }
    </style>
    <linearGradient id="linear-gradient" x1="74.66" y1="245.01" x2="698.78" y2="-174.8" gradientUnits="userSpaceOnUse">
      <stop offset="0" stop-color="#1652f0"/>
      <stop offset="1" stop-color="#6100ff"/>
    </linearGradient>
  </defs>
  <g id="Layer_1-2" data-name="Layer 1">
    <path class="cls-1" d="M273.35,39.24c-.24-.96-1.11-1.63-2.09-1.63h-19.23c-.99,0-1.85.67-2.09,1.62l-19.56,75.85c-.35,1.37.68,2.7,2.09,2.7h10.22c1,0,1.86-.68,2.1-1.65l3.93-16.18c.24-.97,1.1-1.65,2.1-1.65h21.54c1,0,1.87.68,2.1,1.66l3.89,16.17c.23.97,1.1,1.66,2.1,1.66h10.22c1.41,0,2.44-1.33,2.09-2.7l-19.41-75.85ZM268.56,86.84h-13.92c-1.4,0-2.43-1.31-2.1-2.67l6.99-28.8c.54-2.2,3.67-2.2,4.2,0l6.93,28.8c.33,1.36-.7,2.67-2.1,2.67ZM349.74,108.11v7.51c0,1.19-.97,2.16-2.16,2.16h-40.35c-1.19,0-2.16-.97-2.16-2.16V39.88c0-1.19.97-2.16,2.16-2.16h10.01c1.19,0,2.16.97,2.16,2.16v63.91c0,1.19.97,2.16,2.16,2.16h26.02c1.19,0,2.16.97,2.16,2.16ZM415.96,107.06c1.77-3.38,2.66-7.3,2.66-11.75,0-4.7-.92-8.45-2.77-11.23-1.85-2.79-4.15-4.81-6.92-6.08-.3-.14-.6-.27-.91-.39-1.67-.68-1.77-2.96-.21-3.86.15-.08.29-.17.44-.26,2.46-1.48,4.5-3.61,6.11-6.38,1.61-2.77,2.42-6.14,2.42-10.12s-.9-7.62-2.69-10.48c-1.79-2.86-4.46-5.04-8.01-6.54-3.55-1.5-8-2.25-13.35-2.25h-27.8c-1.19,0-2.16.97-2.16,2.16v75.74c0,1.19.97,2.16,2.16,2.16h27.53c6.19,0,11.21-.94,15.06-2.82,3.85-1.88,6.67-4.51,8.44-7.9ZM376.45,51.28c0-1.19.97-2.16,2.16-2.16h10.49c2.82,0,5.24.35,7.25,1.06,2.01.71,3.53,1.8,4.56,3.28,1.03,1.48,1.55,3.44,1.55,5.86,0,3.58-1.24,6.38-3.72,8.39-2.48,2.01-6.11,3.01-10.88,3.01h-9.24c-1.19,0-2.16-.97-2.16-2.16v-17.28ZM400.33,103.23c-2.5,2.1-6.06,3.15-10.69,3.15h-11.03c-1.19,0-2.16-.97-2.16-2.16v-20c0-1.19.97-2.16,2.16-2.16h10.05c2.21,0,4.24.24,6.11.71,1.86.47,3.49,1.2,4.88,2.2,1.39,1,2.48,2.28,3.26,3.85.78,1.57,1.17,3.45,1.17,5.62,0,3.76-1.25,6.7-3.75,8.79ZM477.74,117.78h-42.68c-1.19,0-2.16-.97-2.16-2.16V39.88c0-1.19.97-2.16,2.16-2.16h42.68c1.19,0,2.16.97,2.16,2.16v7.08c0,1.19-.97,2.16-2.16,2.16h-28.3c-1.19,0-2.16.97-2.16,2.16v18.48c0,1.19.97,2.16,2.16,2.16h22.28c1.19,0,2.16.97,2.16,2.16v7.08c0,1.19-.97,2.16-2.16,2.16h-22.28c-1.19,0-2.16.97-2.16,2.16v18.75c0,1.19.97,2.16,2.16,2.16h28.3c1.19,0,2.16.97,2.16,2.16v7.08c0,1.19-.97,2.16-2.16,2.16ZM541.72,77.56c.27-.17.54-.35.81-.54,2.28-1.59,4.22-3.85,5.81-6.78,1.59-2.93,2.39-6.49,2.39-10.69,0-7.16-2.03-12.59-6.08-16.28-4.05-3.69-10.11-5.54-18.18-5.54h-28.67c-1.19,0-2.16.97-2.16,2.16v75.74c0,1.19.97,2.16,2.16,2.16h9.63c1.19,0,2.16-.97,2.16-2.16v-27.92c0-1.19.97-2.16,2.16-2.16h11.68c3.73,0,6.51.85,8.36,2.55,1.85,1.7,2.77,4.2,2.77,7.49v14.55c0,1.74.14,3.28.41,4.64.11.54.22,1.02.34,1.45.27.93,1.11,1.56,2.08,1.56h9.79c1.39,0,2.4-1.27,2.11-2.62-.02-.11-.05-.22-.07-.33-.29-1.43-.43-2.99-.43-4.7v-16.23c0-3.4-.62-6.11-1.87-8.11-1.25-2.01-2.85-3.48-4.8-4.42-.02,0-.04-.02-.06-.03-1.55-.74-1.77-2.86-.32-3.77ZM534.37,67.84c-1.1,1.99-2.6,3.54-4.48,4.64-1.88,1.1-4,1.66-6.35,1.66h-11.79c-1.19,0-2.16-.97-2.16-2.16v-20.7c0-1.19.97-2.16,2.16-2.16h11.35c4.12,0,7.31.98,9.55,2.93,2.24,1.95,3.37,4.89,3.37,8.79,0,2.68-.55,5.01-1.66,7ZM606.07,116.39c-4.25,1.72-9.24,2.58-14.95,2.58s-10.64-.91-14.87-2.71c-4.23-1.81-7.53-4.53-9.88-8.17-2.35-3.64-3.53-8.15-3.53-13.54v-3.31h14.27v3.04c0,4.34,1.18,7.59,3.56,9.74,2.37,2.15,5.87,3.23,10.5,3.23s8.24-.78,10.72-2.33c2.48-1.56,3.72-4.05,3.72-7.49,0-2.5-.84-4.62-2.52-6.38-1.68-1.75-3.99-3.3-6.92-4.64-2.93-1.34-6.26-2.59-9.99-3.75-4.2-1.3-8.02-2.98-11.45-5.05-3.44-2.06-6.19-4.67-8.25-7.82-2.06-3.15-3.09-7.02-3.09-11.62s1.18-8.5,3.55-11.72c2.37-3.22,5.63-5.67,9.77-7.35,4.14-1.68,8.86-2.52,14.14-2.52s10.41.87,14.63,2.6c4.22,1.74,7.52,4.32,9.91,7.76,2.39,3.44,3.58,7.73,3.58,12.86v3.53h-14.33v-2.88c0-4.12-1.12-7.17-3.36-9.14-2.25-1.97-5.65-2.96-10.21-2.96s-7.87.78-10.26,2.33c-2.39,1.56-3.58,4.03-3.58,7.44,0,2.53.81,4.65,2.44,6.35,1.63,1.7,3.86,3.18,6.7,4.42,2.84,1.25,6.07,2.51,9.69,3.77,4.81,1.59,8.97,3.39,12.48,5.4,3.51,2.01,6.22,4.51,8.14,7.49,1.92,2.99,2.88,6.78,2.88,11.37s-1.18,8.69-3.55,11.97c-2.37,3.27-5.68,5.77-9.93,7.49ZM27.34,113.95h-15.09c-2.15,0-3.9-1.74-3.9-3.9v-4.73c0-4.88-1.55-9.71-4.48-13.97-2.54-3.69-3.88-8.03-3.88-12.53,0-6.17,1.86-11.68,5.25-15.52,3.9-4.42,9.6-6.67,16.94-6.67s12.73,1.9,16.49,5.82c3.09,3.21,3.99,8.51,4.69,14.38l.04.35s4.89,6.22,6.2,8.89c.27.56.04,1.23-.51,1.5l-4.73,2.37v7.5c0,2.03-.84,3.95-2.29,5.28-1.44,1.31-3.31,1.93-5.28,1.75l-5.56-.36v5.94c0,2.15-1.74,3.9-3.9,3.9ZM18.92,14.94c1.85,0,3.76-1.38,4.63-3.34.82-1.8.53-3.76-.74-5.19-.77-.87-2.12-.95-2.99-.19-.87.79-.95,2.12-.19,2.99.11.13.19.24.11.53-.16.5-.66.9-.82.95-1.85,0-2.81-.98-2.81-2.89,0-1.75,1.06-2.97,2.91-3.42.05-.03.11-.03.19-.05h.03c.13-.03.29-.05.48-.05,2.07-.26,4.24.85,5.27,2.65,1.22,2.2.69,4.95-1.54,7.79-6.51,8.32-5.08,13.98-3.63,16.63,1.72,3.18,5.11,5.19,9.37,5.64h19.94v-.16c.03-.45.03-.93,0-1.4-.05-.95-.24-1.91-.58-2.81-.34-.93-.82-1.8-1.46-2.6-.61-.79-1.38-1.51-2.2-2.15.95.42,1.88.95,2.73,1.64.85.66,1.62,1.48,2.22,2.41.64.95,1.11,1.99,1.46,3.07.16.56.29,1.11.4,1.69,0,.08.03.19.03.29h35.3c1.62,0,2.97-1.69,2.2-3.12-2.22-4.16-5.67-10.22-15.44-13.45.5-.85.79-1.85.79-2.91,0-3.15-2.57-5.72-5.75-5.72s-5.69,2.52-5.75,5.64c-3.63-4.13-8.61-7.94-17.72-7.94-10.67,0-19.3,9.08-19.44,19.75,0,.85.03,1.69.13,2.52-1.11-.61-1.99-1.4-2.54-2.44-1.59-2.94-.4-7.31,3.26-12,3.28-4.18,3.97-8.74,1.88-12.45C26.91,1.76,23.44-.15,19.9,0h-.45c-.37.05-.74.13-1.11.21-1.59.29-2.6.82-3.23,1.35-2.01,1.4-3.23,3.63-3.23,6.25,0,4.26,2.83,7.12,7.04,7.12ZM76.72,26.28c.9,0,1.64.74,1.64,1.62s-.74,1.64-1.64,1.64-1.62-.74-1.62-1.64.71-1.62,1.62-1.62ZM64.9,179.74c0,.6-.48,1.08-1.08,1.08h-30.25c-.6,0-1.08-.48-1.08-1.08,0-2.98,2.42-5.4,5.4-5.4h4.46l.46-3.24h11.75l.46,3.24h4.46c2.98,0,5.4,2.42,5.4,5.4ZM66.95,139.83v21.66c0,.59-.64,1.08-1.37,1.08H31.82c-.76,0-1.37-.49-1.37-1.08v-21.66c0-.59.61-1.08,1.37-1.08h33.76c.74,0,1.37.49,1.37,1.08ZM70.29,131.9H27.08c-1.79,0-3.24,1.45-3.24,3.24v31.33c0,1.79,1.45,3.24,3.24,3.24h43.2c1.79,0,3.26-1.45,3.26-3.24v-31.33c0-1.79-1.47-3.24-3.26-3.24ZM69.28,161.49c0,1.89-1.67,3.41-3.7,3.41H31.82c-2.04,0-3.7-1.52-3.7-3.41v-21.66c0-1.86,1.67-3.41,3.7-3.41h33.76c2.04,0,3.7,1.55,3.7,3.41v21.66ZM249.72,163.19v2.91c0,.42-.34.76-.76.76h-15.21c-.42,0-.76-.34-.76-.76v-28.47c0-.42.34-.76.76-.76h3.85c.42,0,.76.34.76.76v24.04c0,.42.34.76.76.76h9.85c.42,0,.76.34.76.76ZM284.82,137.41c-.09-.34-.39-.57-.74-.57h-7.28c-.35,0-.65.23-.74.57l-7.35,28.51c-.12.48.24.95.74.95h3.93c.35,0,.66-.24.74-.58l1.49-6.14c.08-.34.39-.58.74-.58h8.15c.35,0,.66.24.74.58l1.47,6.13c.08.34.39.58.74.58h3.93c.5,0,.86-.47.74-.95l-7.3-28.51ZM283.1,155.28h-5.34c-.49,0-.85-.46-.74-.94l2.68-11.05c.19-.78,1.29-.77,1.48,0l2.66,11.05c.12.48-.25.94-.74.94ZM329.21,151.96c-1.04-.47-2.07-.72-3.1-.75.98-.07,1.92-.38,2.85-.93.92-.56,1.68-1.35,2.29-2.39s.9-2.3.9-3.79-.34-2.85-1.01-3.92c-.67-1.07-1.67-1.89-3-2.45-1.33-.56-2.99-.84-5-.84h-10.46c-.42,0-.76.34-.76.76v28.47c0,.42.34.76.76.76h10.36c2.32,0,4.2-.35,5.64-1.06s2.5-1.69,3.16-2.96c.66-1.27,1-2.74,1-4.4,0-1.76-.35-3.17-1.04-4.21-.69-1.04-1.56-1.8-2.59-2.28ZM317.04,141.91c0-.42.34-.76.76-.76h3.98c1.06,0,1.96.13,2.71.4.75.26,1.32.67,1.71,1.23.39.56.58,1.29.58,2.2,0,1.34-.46,2.39-1.39,3.14-.93.75-2.29,1.13-4.08,1.13h-3.51c-.42,0-.76-.34-.76-.76v-6.57ZM325.99,161.42c-.93.79-2.27,1.18-4.01,1.18h-4.18c-.42,0-.76-.34-.76-.76v-7.59c0-.42.34-.76.76-.76h3.81c.83,0,1.59.09,2.29.26.7.18,1.31.45,1.83.82.52.37.93.85,1.22,1.44.29.59.44,1.29.44,2.1,0,1.41-.47,2.51-1.4,3.29ZM374.82,140.42c-1.18-1.31-2.56-2.3-4.14-2.97-1.58-.67-3.29-1.01-5.13-1.01s-3.51.34-5.09,1.01c-1.58.67-2.96,1.66-4.14,2.97-1.18,1.31-2.1,2.92-2.76,4.83-.66,1.91-.99,4.11-.99,6.59s.33,4.68.99,6.6c.66,1.92,1.58,3.54,2.77,4.86,1.19,1.32,2.56,2.32,4.14,3,1.57.68,3.27,1.02,5.08,1.02s3.53-.34,5.1-1.02c1.57-.68,2.95-1.68,4.14-3,1.19-1.32,2.11-2.94,2.78-4.86.66-1.92,1-4.12,1-6.6s-.33-4.68-.99-6.59c-.66-1.91-1.58-3.52-2.75-4.83ZM372.09,158.16c-.67,1.63-1.58,2.82-2.71,3.59-1.14.77-2.41,1.15-3.82,1.15s-2.63-.38-3.77-1.14c-1.15-.76-2.06-1.95-2.74-3.58-.68-1.63-1.03-3.74-1.03-6.34s.34-4.71,1.03-6.31c.68-1.61,1.6-2.78,2.74-3.53,1.15-.75,2.4-1.12,3.77-1.12s2.66.37,3.8,1.12c1.14.75,2.05,1.92,2.72,3.53.68,1.61,1.02,3.71,1.02,6.31s-.34,4.7-1.01,6.32ZM418.57,149.05c.6-1.1.89-2.43.89-4.01,0-2.68-.76-4.72-2.28-6.1-1.52-1.38-3.79-2.07-6.81-2.07h-10.79c-.42,0-.76.34-.76.76v28.47c0,.42.34.76.76.76h3.7c.42,0,.76-.34.76-.76v-10.56c0-.42.34-.76.76-.76h4.42c1.4,0,2.44.32,3.13.96.69.64,1.04,1.57,1.04,2.81v5.45c0,.65.05,1.23.15,1.74.1.51.22.88.36,1.13h5.39c-.16-.2-.3-.57-.41-1.11-.11-.54-.16-1.12-.16-1.76v-6.08c0-1.27-.23-2.29-.7-3.04-.47-.75-1.07-1.3-1.8-1.66-.73-.35-1.49-.56-2.28-.61.77-.08,1.59-.42,2.44-1.02.85-.6,1.58-1.44,2.18-2.54ZM413.34,148.16c-.41.75-.97,1.32-1.68,1.74-.71.41-1.5.62-2.38.62h-4.47c-.42,0-.76-.34-.76-.76v-7.85c0-.42.34-.76.76-.76h4.3c1.54,0,2.74.37,3.58,1.1.84.73,1.26,1.83,1.26,3.29,0,1-.21,1.88-.62,2.62ZM455.03,137.41c-.09-.34-.39-.57-.74-.57h-7.28c-.35,0-.65.23-.74.57l-7.35,28.51c-.12.48.24.95.74.95h3.93c.35,0,.66-.24.74-.58l1.49-6.14c.08-.34.39-.58.74-.58h8.15c.35,0,.66.24.74.58l1.48,6.13c.08.34.39.58.74.58h3.93c.5,0,.86-.47.74-.95l-7.3-28.51ZM453.31,155.28h-5.34c-.49,0-.85-.46-.74-.94l2.68-11.05c.19-.78,1.29-.77,1.48,0l2.66,11.05c.12.48-.25.94-.74.94ZM498.11,137.64v2.75c0,.42-.34.76-.76.76h-6c-.42,0-.76.34-.76.76v24.2c0,.42-.34.76-.76.76h-3.85c-.42,0-.76-.34-.76-.76v-24.2c0-.42-.34-.76-.76-.76h-5.98c-.42,0-.76-.34-.76-.76v-2.75c0-.42.34-.76.76-.76h18.87c.42,0,.76.34.76.76ZM537.3,140.42c-1.18-1.31-2.56-2.3-4.14-2.97-1.58-.67-3.29-1.01-5.13-1.01s-3.51.34-5.09,1.01c-1.58.67-2.96,1.66-4.14,2.97-1.18,1.31-2.1,2.92-2.75,4.83-.66,1.91-.99,4.11-.99,6.59s.33,4.68.99,6.6c.66,1.92,1.58,3.54,2.77,4.86,1.19,1.32,2.56,2.32,4.14,3,1.57.68,3.27,1.02,5.08,1.02s3.53-.34,5.1-1.02c1.57-.68,2.95-1.68,4.14-3,1.19-1.32,2.11-2.94,2.77-4.86.66-1.92,1-4.12,1-6.6s-.33-4.68-.99-6.59c-.66-1.91-1.58-3.52-2.75-4.83ZM534.57,158.16c-.67,1.63-1.58,2.82-2.71,3.59-1.14.77-2.41,1.15-3.82,1.15s-2.63-.38-3.77-1.14c-1.15-.76-2.06-1.95-2.74-3.58-.68-1.63-1.03-3.74-1.03-6.34s.34-4.71,1.03-6.31c.68-1.61,1.6-2.78,2.74-3.53,1.15-.75,2.4-1.12,3.77-1.12s2.66.37,3.8,1.12c1.14.75,2.05,1.92,2.72,3.53.68,1.61,1.02,3.71,1.02,6.31s-.34,4.7-1.01,6.32ZM581.05,149.05c.6-1.1.89-2.43.89-4.01,0-2.68-.76-4.72-2.28-6.1-1.52-1.38-3.79-2.07-6.81-2.07h-10.79c-.42,0-.76.34-.76.76v28.47c0,.42.34.76.76.76h3.71c.42,0,.76-.34.76-.76v-10.56c0-.42.34-.76.76-.76h4.42c1.4,0,2.44.32,3.13.96.69.64,1.04,1.57,1.04,2.81v5.45c0,.65.05,1.23.15,1.74.1.51.22.88.36,1.13h5.39c-.16-.2-.3-.57-.41-1.11-.11-.54-.16-1.12-.16-1.76v-6.08c0-1.27-.23-2.29-.7-3.04-.47-.75-1.07-1.3-1.8-1.66-.73-.35-1.49-.56-2.28-.61.77-.08,1.59-.42,2.44-1.02.85-.6,1.58-1.44,2.18-2.54ZM575.82,148.16c-.41.75-.97,1.32-1.68,1.74-.71.41-1.5.62-2.38.62h-4.46c-.42,0-.76-.34-.76-.76v-7.85c0-.42.34-.76.76-.76h4.3c1.54,0,2.74.37,3.58,1.1.84.73,1.26,1.83,1.26,3.29,0,1-.21,1.88-.62,2.62ZM621.01,137.94l-8.07,18.41c-.04.1-.06.2-.06.31v9.45c0,.42-.34.76-.76.76h-3.85c-.42,0-.76-.34-.76-.76v-9.45c0-.1-.02-.21-.06-.3l-8.01-18.41c-.22-.5.15-1.06.7-1.06h4c.31,0,.59.19.71.48l4.67,11.8c.25.64,1.16.64,1.41,0l4.66-11.8c.11-.29.39-.48.71-.48h4.03c.55,0,.92.56.7,1.07ZM98.37,130.87c-.1,1.79-1.57,3.18-3.34,3.18-.06,0-.11,0-.17,0-.92-.05-22.56-1.35-26.88-19.52-2.16-9.09-.72-17.74,4.05-24.36,5.39-7.47,14.64-11.98,26.78-13.06,1.85-.14,3.48,1.2,3.64,3.05.16,1.85-1.2,3.48-3.05,3.64-10.13.89-17.71,4.45-21.92,10.3-3.62,5.01-4.67,11.72-2.97,18.88,1.29,5.44,5.04,9.5,11.15,12.05,4.89,2.04,9.49,2.32,9.54,2.32,1.85.1,3.27,1.68,3.17,3.53ZM108.76,42.66c4.47-5.05,14.37-11.56,27.57-7.95,1.79.49,2.84,2.33,2.36,4.12-.49,1.79-2.33,2.85-4.12,2.36-13.78-3.76-21.33,6.58-21.64,7.02l-1.24,1.73-2.1-.37c-18.08-3.26-23.32,13.55-23.53,14.27l-.57,1.89-1.93.44c-10.19,2.25-10.19,11.34-10.15,12.37.06,1.84-1.38,3.4-3.22,3.48-.05,0-.09,0-.14,0-1.78,0-3.27-1.39-3.35-3.19-.24-5.14,2.36-15.3,13.54-18.72,3.04-7.92,11.92-19.44,28.53-17.44ZM203.83,84.64c-.36,1.55-1.74,2.6-3.27,2.6-.25,0-.5-.03-.76-.09-1.8-.42-2.93-2.21-2.52-4.01.18-.8,3.91-18.9-17.29-25.03l-1.27-.37-.68-1.13c-.35-.57-8.83-14.17-24.88-10.35-13.52,3.22-16.64,16.28-17.32,20.75,1.3,1.08,3.79,2.59,6.52,1.43,1.71-.72,3.68.08,4.4,1.79.72,1.71-.08,3.68-1.79,4.4-4.96,2.09-9.47.45-12.51-1.72-3.3,2.33-7.79,3.01-8.9,3.15-.14.02-.28.02-.42.02-1.67,0-3.12-1.25-3.33-2.94-.23-1.84,1.08-3.51,2.92-3.74,2.35-.3,5.28-1.3,6.33-2.36.88-8.33,6.48-23.48,22.54-27.3,15.75-3.75,27.02,5.84,31.46,12.3,26.03,8.3,20.81,32.36,20.75,32.6ZM198.82,97.21c2.41,7.08,2.2,14.87-.6,21.93-2.81,7.08-7.47,12.15-13.5,14.65-.46.17-8.49,3.11-19.04,3.51-5.04.19-8.36,1.03-10.29,1.73l5.48,19.06c.15.52.6.91,1.16.99,3.76.54,12.92,1.36,16.86-2.72l-3.93-10.06c-.68-1.72.16-3.67,1.88-4.36,1.73-.68,3.67.16,4.36,1.88l3.96,9.98c.98,2.46.41,5.3-1.44,7.22-3.99,4.14-10.28,5.22-15.77,5.22-2.58,0-4.98-.24-6.88-.51-3.16-.46-5.78-2.72-6.65-5.78l-5.84-20.3c-.72-2.51.54-5.22,2.94-6.28,2.49-1.11,6.92-2.5,13.91-2.76,9.49-.36,16.76-3.02,16.84-3.05,4.25-1.77,7.56-5.45,9.71-10.88,2.21-5.58,2.38-11.72.49-17.29-5.1-14.98-22.23-15.55-22.96-15.56-1.85-.04-3.32-1.57-3.28-3.42.04-1.85,1.53-3.33,3.41-3.29.92.02,22.54.62,29.18,20.11ZM128.81,137.05c-.88,0-1.77-.04-2.69-.11-20.47-1.73-26.44-17.37-26.73-25.4-.07-1.85,1.38-3.41,3.23-3.48,1.85-.12,3.4,1.37,3.48,3.22.04.77,1.06,17.32,20.59,18.97,18.17,1.54,24.85-16.64,25.13-17.41.62-1.74,2.53-2.66,4.28-2.05,1.74.62,2.66,2.52,2.05,4.27-2.75,7.86-12.31,21.99-29.34,21.99ZM123.99,102.24c-3.16-2.58-4.76-6.5-4.75-11.66,0-1.85,1.51-3.35,3.36-3.35h0c1.85,0,3.35,1.51,3.35,3.36,0,3.03.76,5.2,2.29,6.44,2.71,2.22,7.39,1.38,7.43,1.37,1.82-.38,3.59.79,3.97,2.61.37,1.82-.79,3.59-2.61,3.97-.32.07-1.67.32-3.5.32-2.7,0-6.46-.55-9.54-3.06Z"/>
  </g>
</svg>