<svg width="42" height="20" viewBox="0 0 42 20" fill="none" xmlns="http://www.w3.org/2000/svg">
<g clip-path="url(#clip0_838_571)">
<path d="M41.7638 17.9009C40.5787 15.7079 38.7631 12.4963 33.5946 10.7924C33.8624 10.3411 34.0142 9.81607 34.0142 9.25304C34.0142 7.57871 32.6562 6.2228 30.984 6.2228C29.3117 6.2228 27.9769 7.55551 27.9537 9.20875C26.0348 7.03044 23.4031 5.0166 18.5825 5.0166C12.9459 5.0166 8.3784 9.81185 8.31724 15.4485C8.31303 15.8976 8.33622 16.3405 8.38683 16.777C7.7985 16.4649 7.33879 16.0347 7.04568 15.4949C6.2043 13.9429 6.82848 11.6338 8.7643 9.16025C10.5019 6.93765 10.8646 4.53581 9.75962 2.57259C8.82545 0.921453 7.0014 -0.078084 5.1183 0.00626515C5.0445 -0.00216976 4.96648 -0.00216976 4.88845 0.00626515C4.68391 0.0273524 4.4899 0.0632008 4.29801 0.105375C3.46295 0.26353 2.93155 0.539773 2.59416 0.824452C1.52081 1.56883 0.879761 2.74129 0.879761 4.12883C0.879761 6.38095 2.37696 7.89291 4.60377 7.89291C5.58012 7.89291 6.58809 7.16751 7.05623 6.13001C7.48641 5.17265 7.3409 4.1457 6.664 3.38445C6.2528 2.92264 5.54427 2.88046 5.08246 3.29166C4.61854 3.70287 4.57847 4.4114 4.98756 4.87321C5.04661 4.93858 5.08456 4.99762 5.03606 5.14313C4.95171 5.41094 4.68391 5.62813 4.60377 5.65133C3.62111 5.65133 3.12134 5.13891 3.12134 4.12672C3.12134 3.20099 3.67383 2.56204 4.65649 2.31532C4.69023 2.309 4.72397 2.30056 4.76193 2.29424C4.76404 2.29424 4.76615 2.29424 4.76826 2.29424C4.84628 2.27947 4.93063 2.26893 5.02341 2.25839C6.11995 2.12554 7.26288 2.70755 7.80693 3.67123C8.45431 4.8226 8.16753 6.27973 6.99929 7.77693C3.56206 12.1694 4.3191 15.1659 5.07613 16.5619C5.99343 18.251 7.78163 19.3075 10.0316 19.5542H20.5668C20.569 19.5247 20.5711 19.4951 20.5732 19.4677C20.5922 19.2231 20.5922 18.9722 20.5774 18.7233C20.5458 18.2236 20.4424 17.7217 20.2653 17.2388C20.0882 16.7559 19.8288 16.2941 19.5019 15.8723C19.1709 15.4527 18.7744 15.071 18.3295 14.7421C18.8377 14.9593 19.329 15.2418 19.7782 15.5982C20.2231 15.9567 20.6259 16.389 20.9549 16.8803C21.2817 17.3738 21.5432 17.922 21.7203 18.4998C21.811 18.7887 21.8806 19.086 21.9291 19.3897C21.9375 19.4445 21.946 19.4993 21.9523 19.5542H40.5955C41.4517 19.5542 42.1729 18.6516 41.7659 17.9009H41.7638ZM35.1592 15.6024C34.6848 15.6024 34.2989 15.2165 34.2989 14.7421C34.2989 14.2676 34.6827 13.8817 35.1592 13.8817C35.6358 13.8817 36.0196 14.2676 36.0196 14.7421C36.0196 15.2165 35.6358 15.6024 35.1592 15.6024Z" fill="white"/>
</g>
<defs>
<clipPath id="clip0_838_571">
<rect width="41" height="19.5542" fill="white" transform="translate(0.879761)"/>
</clipPath>
</defs>
</svg>
