<svg width="95" height="95" viewBox="0 0 95 95" fill="none" xmlns="http://www.w3.org/2000/svg">
<path d="M17.3182 40.2285C17.3182 35.9614 19.7443 32.1509 23.5549 30.3334C24.9418 25.7063 29.1643 22.5305 34.0549 22.5305C34.7366 22.5305 35.4257 22.5973 36.1123 22.7309C38.1884 20.1835 41.3036 18.689 44.618 18.689C45.7389 18.689 46.8462 18.8573 47.9065 19.1913C48.629 19.4189 49.0311 20.1897 48.8047 20.911C48.577 21.6347 47.805 22.0368 47.085 21.8092C46.2907 21.5593 45.4618 21.4331 44.6193 21.4331C41.8913 21.4331 39.3451 22.7841 37.8073 25.0444C37.4745 25.5319 36.867 25.7533 36.2992 25.5925C35.5507 25.381 34.796 25.2733 34.0561 25.2733C30.2122 25.2733 26.9188 27.8887 26.0478 31.6325C25.9464 32.068 25.6383 32.4268 25.2226 32.595C22.0876 33.8557 20.0623 36.8509 20.0623 40.2272C20.0623 40.9856 19.4474 41.5993 18.6902 41.5993C17.9331 41.5993 17.3182 40.9856 17.3182 40.2272V40.2285ZM31.6547 59.0239C25.2622 59.0239 20.0623 54.9003 20.0623 49.8315C20.0623 48.4546 20.4532 47.1159 21.2228 45.8552C23.1862 42.6385 27.1835 40.6392 31.6547 40.6392C32.4119 40.6392 33.0268 40.0256 33.0268 39.2672C33.0268 38.5088 32.4119 37.8951 31.6547 37.8951C26.2346 37.8951 21.3391 40.3967 18.8808 44.4238C17.844 46.1224 17.3182 47.9411 17.3182 49.8315C17.3182 56.4122 23.7491 61.7667 31.6547 61.7667C32.4119 61.7667 33.0268 61.1531 33.0268 60.3947C33.0268 59.6363 32.4119 59.0226 31.6547 59.0226V59.0239ZM68.5329 26.9398C66.3876 23.0748 62.1589 20.6103 57.5838 20.6103C55.3742 20.6103 53.193 21.1869 51.2741 22.2768C47.5081 24.4197 45.1686 28.3539 45.1686 32.5443C45.1686 33.0763 43.8658 34.0537 41.7391 34.0537C40.9819 34.0537 40.367 34.6673 40.367 35.4257C40.367 36.1841 40.9819 36.7977 41.7391 36.7977C43.7112 36.7977 45.4185 36.1792 46.5406 35.2154C47.6628 36.1779 49.3701 36.7977 51.3422 36.7977C52.0993 36.7977 52.7142 36.1841 52.7142 35.4257C52.7142 34.6673 52.0993 34.0537 51.3422 34.0537C49.2142 34.0537 47.9127 33.075 47.9127 32.5443C47.9127 29.2892 49.6769 26.3423 52.6313 24.6609C54.137 23.806 55.8505 23.3532 57.585 23.3532C61.3362 23.3532 64.7805 25.4527 66.3604 28.7016C66.5373 29.0665 66.8677 29.3338 67.2611 29.4315C71.7818 30.5648 74.9403 34.6079 74.9403 39.2659C74.9403 39.6754 74.9168 40.0788 74.8686 40.4759C74.7795 41.2294 75.3164 41.9111 76.0686 42.0001C76.1231 42.0063 76.1787 42.01 76.2332 42.01C76.9174 42.01 77.5112 41.4966 77.5941 40.8001C77.6535 40.2965 77.6844 39.7856 77.6844 39.2659C77.6844 33.5588 73.9543 28.5766 68.5366 26.9373L68.5329 26.9398ZM45.03 47.9102C45.03 45.489 46.9996 43.5194 49.4196 43.5194C50.1767 43.5194 50.7916 42.9058 50.7916 42.1474C50.7916 41.389 50.1767 40.7753 49.4196 40.7753C45.4865 40.7753 42.2859 43.9759 42.2859 47.909C42.2859 48.6673 42.9008 49.281 43.658 49.281C44.4151 49.281 45.03 48.6673 45.03 47.909V47.9102ZM59.0226 49.2822C59.7798 49.2822 60.3947 48.6686 60.3947 47.9102C60.3947 47.1518 59.7798 46.5381 59.0226 46.5381C56.1486 46.5381 53.8091 48.8777 53.8091 51.7517C53.8091 56.8204 49.4703 60.944 44.1368 60.944C41.7106 60.944 39.3921 60.0878 37.6056 58.5327C35.61 56.7944 34.4656 54.3238 34.4656 51.7529C34.4656 50.9945 33.8508 50.3809 33.0936 50.3809C32.3364 50.3809 31.7216 50.9945 31.7216 51.7529C31.7216 55.1181 33.2099 58.3434 35.8043 60.6013C38.0906 62.5919 41.05 63.6881 44.138 63.6881C50.9846 63.6881 56.5544 58.3335 56.5544 51.7529C56.5544 50.392 57.663 49.2835 59.0239 49.2835L59.0226 49.2822ZM62.8641 37.8964C62.1069 37.8964 61.4921 38.51 61.4921 39.2684C61.4921 40.0268 62.1069 40.6405 62.8641 40.6405C67.0978 40.6405 70.8143 43.199 72.3336 47.1592C72.7851 48.3395 73.0153 49.5618 73.0153 50.7928C73.0153 56.6744 69.149 60.944 63.8229 60.944C63.7574 60.944 57.0592 61.0776 53.7435 62.7354C53.2784 62.968 52.9851 63.4431 52.9851 63.9627C52.9851 66.301 55.2294 73.7477 55.7874 74.7312C56.6806 76.3099 58.1158 76.3099 60.9762 76.3099C61.6554 76.3099 67.6533 76.2418 69.1107 73.8726C69.5276 73.1971 69.5573 72.3967 69.2369 71.7694L67.5023 67.5568C67.2128 66.8565 66.4099 66.5237 65.7109 66.8107C65.0106 67.1003 64.6766 67.9007 64.9649 68.6022L66.6017 72.5637C65.9249 72.9843 63.839 73.5658 60.9762 73.5658C60.167 73.5658 58.4845 73.5658 58.1863 73.4025C57.7941 72.6095 56.2068 67.3365 55.8158 64.8399C58.503 63.9095 63.0076 63.6881 63.8229 63.6881C70.7388 63.6881 75.7581 58.2642 75.7581 50.7928C75.7581 49.2241 75.4674 47.6714 74.8945 46.1756C72.9942 41.2244 68.1593 37.8964 62.8629 37.8964H62.8641ZM65.988 91.2663C71.6444 88.8736 76.7244 85.449 81.0854 81.0879C85.4465 76.7268 88.8723 71.6469 91.2638 65.9905C93.7407 60.1336 94.9977 53.913 94.9977 47.5007C94.9977 41.0883 93.7419 34.8677 91.2638 29.0109C88.8711 23.3544 85.4465 18.2745 81.0854 13.9134C76.7244 9.55235 71.6444 6.12657 65.988 3.73508C60.1324 1.25575 53.9118 0 47.4994 0C41.0871 0 34.8665 1.25575 29.0096 3.73384C23.3532 6.12657 18.2733 9.55111 13.9122 13.9122C9.55111 18.2733 6.12533 23.3532 3.73384 29.0096C1.25575 34.8677 0 41.0883 0 47.4994C0 53.9106 1.25575 60.1324 3.73384 65.9893C6.12657 71.6457 9.55111 76.7256 13.9122 81.0867C18.2733 85.4478 23.3532 88.8736 29.0096 91.265C34.8665 93.7419 41.0871 94.9989 47.4994 94.9989C53.9118 94.9989 60.1324 93.7431 65.9893 91.265L65.988 91.2663ZM78.8993 16.0996C87.2862 24.4865 91.9059 35.6385 91.9059 47.4994C91.9059 59.3604 87.2862 70.5124 78.8993 78.8993C70.5124 87.2862 59.3604 91.9059 47.4994 91.9059C35.6385 91.9059 24.4865 87.2862 16.0996 78.8993C7.71264 70.5124 3.09298 59.3616 3.09298 47.4994C3.09298 35.6373 7.71264 24.4865 16.0996 16.0996C24.4865 7.71264 35.6385 3.09298 47.4994 3.09298C59.3604 3.09298 70.5124 7.71264 78.8993 16.0996Z" fill="url(#paint0_linear_169_3285)"/>
<defs>
<linearGradient id="paint0_linear_169_3285" x1="-1.10755e-05" y1="78.5" x2="104.601" y2="4.93301" gradientUnits="userSpaceOnUse">
<stop offset="0.185851" stop-color="#6100FF"/>
<stop offset="1" stop-color="#3045FF"/>
</linearGradient>
</defs>
</svg>
