<svg width="96" height="95" viewBox="0 0 96 95" fill="none" xmlns="http://www.w3.org/2000/svg">
<path d="M91.7674 29.01C89.3746 23.3535 85.95 18.2735 81.5876 13.9124C77.2265 9.54998 72.1465 6.1254 66.49 3.73265C60.6331 1.25576 54.4124 0 48 0C41.5876 0 35.3669 1.25576 29.51 3.73265C23.8535 6.1254 18.7735 9.54998 14.4124 13.9124C10.05 18.2735 6.6254 23.3535 4.23265 29.01C1.75576 34.8669 0.5 41.0888 0.5 47.5C0.5 53.9112 1.75576 60.1331 4.23265 65.99C6.6254 71.6465 10.05 76.7265 14.4124 81.0876C18.7735 85.45 23.8535 88.8746 29.51 91.2674C35.3669 93.7442 41.5876 95 48 95C54.4124 95 60.6331 93.7442 66.49 91.2674C72.1465 88.8746 77.2265 85.45 81.5876 81.0876C85.95 76.7265 89.3746 71.6465 91.7674 65.99C94.2442 60.1331 95.5 53.9124 95.5 47.5C95.5 41.0876 94.2442 34.8669 91.7674 29.01ZM79.4003 78.9003C71.0132 87.2885 59.8611 91.907 48 91.907C36.1389 91.907 24.9868 87.2885 16.5997 78.9003C8.2115 70.5132 3.59301 59.3611 3.59301 47.5C3.59301 35.6389 8.2115 24.4868 16.5997 16.0997C24.9868 7.7115 36.1389 3.09301 48 3.09301C59.8611 3.09301 71.0132 7.7115 79.4003 16.0997C87.7885 24.4868 92.407 35.6389 92.407 47.5C92.407 59.3611 87.7885 70.5132 79.4003 78.9003ZM73.9429 50.2318L73.8997 50.2565L70.5592 51.9255V56.5996C70.5592 59.1545 69.4791 61.6017 67.5973 63.3164C65.7279 65.0188 63.3166 65.8292 60.8063 65.5954L59.2004 65.4927V70.8696H56.2695V62.3675L61.0822 62.6768C62.7821 62.8327 64.4029 62.297 65.6463 61.1662C66.907 60.018 67.6295 58.354 67.6295 56.6009V50.1155L72.5214 47.6695C72.7552 47.5346 72.8035 47.3379 72.6649 47.0868L67.6753 38.4882L67.6382 38.1863C67.0356 33.1026 65.3765 29.1164 62.7054 26.3376C59.4479 22.9489 54.7824 21.301 48.4404 21.301C42.0985 21.301 37.1633 23.2409 33.7919 27.0663C30.8647 30.387 29.2526 35.1539 29.2526 40.49C29.2526 44.3872 30.4131 48.1347 32.6092 51.3304C35.1417 55.016 36.4816 59.1941 36.4816 63.4154V70.872H33.5507V63.4154C33.5507 59.8424 32.358 56.1406 30.1942 52.9907C27.6616 49.3063 26.3217 44.9835 26.3217 40.49C26.3217 34.3522 28.1441 29.0397 31.5934 25.1264C35.4894 20.7059 41.3154 18.37 48.4417 18.37C55.568 18.37 61.0315 20.3681 64.8186 24.3074C67.8423 27.4536 69.7414 31.8766 70.4652 37.4551L75.2296 45.664C76.1279 47.2847 75.5513 49.3335 73.9442 50.2318H73.9429Z" fill="url(#paint0_linear_169_3549)"/>
<defs>
<linearGradient id="paint0_linear_169_3549" x1="4.5" y1="72.5" x2="108.12" y2="2.43834" gradientUnits="userSpaceOnUse">
<stop offset="0.185851" stop-color="#6100FF"/>
<stop offset="1" stop-color="#3045FF"/>
</linearGradient>
</defs>
</svg>
