<svg width="42" height="42" viewBox="0 0 42 42" fill="none" xmlns="http://www.w3.org/2000/svg">
<rect width="41.3253" height="41.3253" rx="20.6627" fill="#1E2560"/>
<g clip-path="url(#clip0_280_5761)">
<path d="M29.4603 24.6705L27.1803 22.3905C26.4703 21.6805 25.3103 21.6805 24.6003 22.3905L23.6003 23.3905C23.5003 23.4905 23.3603 23.5105 23.2403 23.4605C21.8803 22.8105 20.6503 21.9405 19.5803 20.8805C18.5103 19.8205 17.6503 18.5805 17.0003 17.2205C16.9403 17.1005 16.9703 16.9605 17.0703 16.8605L18.0703 15.8605C18.7803 15.1505 18.7803 13.9905 18.0703 13.2805L15.8103 11.0105C15.1003 10.3005 13.9403 10.3005 13.2303 11.0105L11.9703 12.2805C10.5903 13.6505 10.1203 15.6905 10.7603 17.4805C12.0303 21.0205 14.0403 23.5105 15.5003 24.9705C17.6203 27.0905 20.1403 28.6805 22.9903 29.7105C23.5203 29.9005 24.0703 29.9905 24.6303 29.9905C25.9403 29.9905 27.2303 29.4705 28.2003 28.5005L29.4603 27.2405C30.1703 26.5305 30.1703 25.3705 29.4603 24.6605V24.6705Z" fill="white"/>
</g>
<defs>
<clipPath id="clip0_280_5761">
<rect width="19.52" height="19.52" fill="white" transform="translate(10.48 10.48)"/>
</clipPath>
</defs>
</svg>
