<svg width="42" height="42" viewBox="0 0 42 42" fill="none" xmlns="http://www.w3.org/2000/svg">
<rect y="0.325195" width="41.3253" height="41.3253" rx="20.6627" fill="#1E2560"/>
<g clip-path="url(#clip0_280_5766)">
<path d="M31 15.0757C30.2621 15.4033 29.4689 15.624 28.6365 15.7234C29.4865 15.2145 30.1392 14.408 30.4459 13.4469C29.6511 13.9182 28.7703 14.2609 27.8325 14.4456C27.0829 13.6458 26.0123 13.146 24.8289 13.146C22.172 13.146 20.2197 15.6248 20.8198 18.1981C17.4008 18.0267 14.3687 16.3887 12.3387 13.899C11.2606 15.7485 11.7796 18.168 13.6115 19.3932C12.9379 19.3715 12.3027 19.1868 11.7486 18.8784C11.7035 20.7847 13.0699 22.5682 15.049 22.9652C14.4698 23.1223 13.8355 23.1591 13.1903 23.0354C13.7135 24.6701 15.2329 25.8593 17.0347 25.8928C15.3047 27.2492 13.1251 27.8551 10.9421 27.5977C12.7632 28.7652 14.927 29.4464 17.2503 29.4464C24.8907 29.4464 29.2073 22.9936 28.9466 17.206C29.7506 16.6252 30.4484 15.9006 31 15.0757Z" fill="white"/>
</g>
<defs>
<clipPath id="clip0_280_5766">
<rect width="20.0579" height="20.0579" fill="white" transform="translate(10.9421 11.2671)"/>
</clipPath>
</defs>
</svg>
