<svg width="74" height="72" viewBox="0 0 74 72" fill="none" xmlns="http://www.w3.org/2000/svg">
<g clip-path="url(#clip0_595_119)">
<path d="M67.8333 25.4289C64.4329 25.4289 61.6667 28.1951 61.6667 31.5955C61.6667 31.851 61.7107 32.0977 61.746 32.3532L54.4076 33.886C53.835 29.6839 51.6502 26.0367 48.4524 23.5436L53.0862 14.6813C53.5795 14.7958 54.0905 14.8574 54.619 14.8574C58.5041 14.8574 61.6667 11.6948 61.6667 7.80983C61.6667 3.92483 58.5041 0.762207 54.619 0.762207C50.7341 0.762207 47.5714 3.92483 47.5714 7.80983C47.5714 9.89768 48.5052 11.7565 49.9588 13.0515L45.4571 21.676C43.4221 20.7158 41.1669 20.1432 38.7707 20.1432C36.0398 20.1432 33.5114 20.9008 31.2738 22.1165L25.4331 13.8179C26.0674 12.8489 26.4462 11.6948 26.4462 10.4527C26.4462 7.05221 23.68 4.28602 20.2795 4.28602C16.8791 4.28602 14.1129 7.05221 14.1129 10.4527C14.1129 13.8532 16.8791 16.6193 20.2795 16.6193C21.1517 16.6193 21.9798 16.4343 22.7374 16.0996L28.3843 24.1163C25.4507 26.6886 23.5038 30.3005 23.081 34.397L13.8045 35.8153C12.9588 32.8729 10.2719 30.7058 7.06524 30.7058C3.18024 30.7058 0.0176239 33.8684 0.0176239 37.7534C0.0176239 41.6384 3.18024 44.801 7.06524 44.801C10.3952 44.801 13.1791 42.4753 13.9102 39.3655L23.125 37.956C23.7857 43.1977 26.9748 47.6201 31.4676 49.981L25.5829 59.187C25.0191 59.0108 24.4288 58.8963 23.8033 58.8963C20.4029 58.8963 17.6367 61.6624 17.6367 65.0629C17.6367 68.4634 20.4029 71.2296 23.8033 71.2296C27.2038 71.2296 29.97 68.4634 29.97 65.0629C29.97 63.5653 29.4062 62.2086 28.5164 61.1339L34.8152 51.2848C36.0926 51.6196 37.4052 51.8486 38.7795 51.8486C41.8012 51.8486 44.6026 50.9501 47.0076 49.4789L53.7821 58.7024C52.17 59.9974 51.1217 61.9532 51.1217 64.1732C51.1217 68.0582 54.2843 71.2208 58.1693 71.2208C62.0543 71.2208 65.2169 68.0582 65.2169 64.1732C65.2169 60.2882 62.0543 57.1255 58.1693 57.1255C57.7993 57.1255 57.4381 57.1784 57.0857 57.2313L49.8179 47.3293C52.4519 44.7658 54.1345 41.2948 54.4957 37.4363L63.2436 35.6127C64.3712 36.8989 66.0186 37.7358 67.8598 37.7358C71.2602 37.7358 74.0264 34.9696 74.0264 31.5691C74.0264 28.1686 71.2602 25.4024 67.8598 25.4024L67.8333 25.4289ZM54.619 4.28602C56.566 4.28602 58.1429 5.86292 58.1429 7.80983C58.1429 9.75673 56.566 11.3336 54.619 11.3336C52.6721 11.3336 51.0952 9.75673 51.0952 7.80983C51.0952 5.86292 52.6721 4.28602 54.619 4.28602ZM17.6191 10.4527C17.6191 8.99911 18.8083 7.80983 20.2619 7.80983C21.7155 7.80983 22.9048 8.99911 22.9048 10.4527C22.9048 11.9063 21.7155 13.0955 20.2619 13.0955C18.8083 13.0955 17.6191 11.9063 17.6191 10.4527ZM23.7857 67.7146C22.3321 67.7146 21.1429 66.5253 21.1429 65.0717C21.1429 63.6182 22.3321 62.4289 23.7857 62.4289C25.2393 62.4289 26.4286 63.6182 26.4286 65.0717C26.4286 66.5253 25.2393 67.7146 23.7857 67.7146ZM61.6667 64.1908C61.6667 66.1377 60.0898 67.7146 58.1429 67.7146C56.196 67.7146 54.619 66.1377 54.619 64.1908C54.619 62.2439 56.196 60.667 58.1429 60.667C60.0898 60.667 61.6667 62.2439 61.6667 64.1908ZM7.04762 41.286C5.10072 41.286 3.52381 39.7091 3.52381 37.7622C3.52381 35.8153 5.10072 34.2384 7.04762 34.2384C8.99453 34.2384 10.5714 35.8153 10.5714 37.7622C10.5714 39.7091 8.99453 41.286 7.04762 41.286ZM38.7619 48.3336C31.961 48.3336 26.4286 42.8013 26.4286 36.0003C26.4286 29.1993 31.961 23.667 38.7619 23.667C45.5629 23.667 51.0952 29.1993 51.0952 36.0003C51.0952 42.8013 45.5629 48.3336 38.7619 48.3336ZM67.8333 34.2384C66.3798 34.2384 65.1905 33.0491 65.1905 31.5955C65.1905 30.142 66.3798 28.9527 67.8333 28.9527C69.2869 28.9527 70.4762 30.142 70.4762 31.5955C70.4762 33.0491 69.2869 34.2384 67.8333 34.2384Z" fill="#1652F0"/>
</g>
<defs>
<clipPath id="clip0_595_119">
<rect width="74" height="70.4762" fill="white" transform="translate(0 0.762207)"/>
</clipPath>
</defs>
</svg>
